<?xml version="1.0" encoding="UTF-8" standalone="no"?>
<svg
   id="SvgjsSvg1838"
   width="3500"
   height="1400"
   version="1.1"
   xmlns="http://www.w3.org/2000/svg"
   xmlns:svg="http://www.w3.org/2000/svg">
  <defs
     id="SvgjsDefs1839" />
  <g
     id="SvgjsG1840"
     transform="matrix(34.4,0,0,34.4,115.0974,37.145771)"
     opacity="1">
    <defs
       id="SvgjsDefs1455" />
    <g
       id="SvgjsG1456"
       transform="scale(0.21645022)"
       opacity="1">
      <g
         id="SvgjsG1457"
         class="Wd2kA3WG8"
         transform="matrix(1.8141331,0,0,1.8141331,-1.2680789,-1.683792)"
         light-content="false"
         non-strokable="false"
         fill="#ec4899">
        <path
           d="m 47,1.732 37.301,21.536 a 6,6 0 0 1 3,5.196 v 43.072 a 6,6 0 0 1 -3,5.196 L 47,98.268 a 6,6 0 0 1 -6,0 L 3.699,76.732 a 6,6 0 0 1 -3,-5.196 V 28.464 a 6,6 0 0 1 3,-5.196 L 41,1.732 a 6,6 0 0 1 6,0 z"
           id="path20" />
      </g>
      <g
         id="SvgjsG1458"
         class="igxmqL3oFD"
         transform="matrix(1.2166602,0,0,1.2166602,16.413271,32.101193)"
         light-content="true"
         non-strokable="false"
         fill="#ffffff">
        <path
           d="M 53.274,38.038 53.272,38.037 74.758,16.55 70.531,12.324 49.046,33.81 36.186,20.95 31.959,25.177 49.047,42.265 Z M 58.107,42.871 53.88,47.098 72.84,66.057 77.066,61.83 62.335,47.1 94.703,14.73 90.477,10.503 58.108,42.872 Z M 44.978,56 l 10e-4,0.002 -14.18,14.18 4.227,4.226 14.18,-14.18 30.91,30.91 4.226,-4.226 -35.138,-35.138 z m -4.833,-4.833 4.226,-4.226 -34.218,-34.218 -4.227,4.226 29.99,29.99 -29.144,29.146 4.226,4.227 29.146,-29.146 z"
           id="path23" />
      </g>
    </g>
  </g>
  <path
     style="font-size:746.667px;font-family:Nunito;-inkscape-font-specification:'Nunito, @wght=800';font-variation-settings:'wght' 800"
     d="m 1636.0102,969.92014 q -26.1333,0 -40.32,-14.18668 -13.44,-14.93334 -13.44,-41.81335 V 488.31993 q 0,-28.37335 13.44,-43.30669 14.1867,-14.93334 37.3333,-14.93334 20.16,0 30.6134,8.21334 11.2,7.46667 25.3867,25.38668 l 262.0801,333.76014 h -20.16 v -312.1068 q 0,-26.13335 13.44,-40.32002 14.1866,-14.93334 40.32,-14.93334 26.1333,0 39.5733,14.93334 14.1867,14.18667 14.1867,40.32002 v 430.82685 q 0,24.64001 -12.6933,39.57335 -12.6934,14.18668 -34.3467,14.18668 -20.9067,0 -33.6,-8.21334 -11.9467,-8.21334 -26.1334,-26.13334 L 1670.3569,601.81331 h 19.4133 v 312.1068 q 0,26.88001 -13.44,41.81335 -13.44,14.18668 -40.32,14.18668 z m 566.719,0 q -28.3733,0 -43.3067,-15.68001 -14.9333,-15.68001 -14.9333,-44.05335 V 489.81326 q 0,-28.37334 14.9333,-44.05335 14.9334,-15.68001 43.3067,-15.68001 27.6267,0 42.56,15.68001 14.9334,15.68001 14.9334,44.05335 v 420.37352 q 0,28.37334 -14.9334,44.05335 -14.1866,15.68001 -42.56,15.68001 z m 196.3727,0 q -22.4,0 -37.3334,-11.94667 -14.1866,-12.69334 -16.4267,-30.61335 -2.24,-18.66668 11.9467,-38.08002 L 2522.3019,670.50667 V 722.0267 L 2364.0085,511.4666 q -14.1866,-20.16 -12.6933,-38.08001 2.24,-18.66668 16.4267,-30.61335 14.9333,-12.69334 36.5866,-12.69334 18.6667,0 32.1067,8.96001 14.1867,8.96 28.3734,28.37334 l 123.2,170.24008 h -37.3333 l 122.4534,-170.24008 q 14.1866,-20.16001 28.3733,-28.37334 14.1867,-8.96001 32.8534,-8.96001 22.4,0 36.5866,11.94667 14.9334,11.94668 16.4267,30.61335 2.24,17.92001 -12.6933,38.82668 L 2615.6353,722.0267 V 670.50667 L 2779.902,889.2801 q 14.9334,19.41334 12.6934,38.08002 -1.4934,17.92001 -16.4267,30.61335 -14.1867,11.94667 -37.3333,11.94667 -17.9201,0 -32.1067,-8.96001 -13.44,-8.96 -28.3734,-29.12001 L 2549.9286,754.88004 h 38.08 l -128.4267,176.96008 q -14.1867,20.16001 -28.3733,29.12001 -14.1867,8.96001 -32.1067,8.96001 z m 660.007,0 q -28.3734,0 -43.3067,-15.68001 -14.9333,-15.68001 -14.9333,-44.80002 V 692.90668 l 23.8933,66.45337 -176.2134,-250.13345 q -10.4534,-15.68 -8.96,-33.60001 1.4933,-18.66668 14.9333,-32.10668 13.44,-13.44001 38.08,-13.44001 17.92,0 32.1067,8.96001 14.9334,8.96 28.3734,28.37334 l 119.4667,172.48008 h -23.8934 l 119.4668,-172.48008 q 14.1866,-20.16001 27.6266,-28.37334 14.1867,-8.96001 32.8534,-8.96001 23.8933,0 37.3333,12.69334 13.44,11.94667 14.1867,30.61335 0.7467,17.92001 -12.6933,37.33335 l -173.9734,248.64011 23.1466,-66.45337 v 216.53343 q 0,60.48003 -57.4933,60.48003 z"
     id="text1"
     aria-label="NIXY" />
</svg>
